# xmcd CD database file
#
# Track frame offsets:
#	150
#	19458
#	54147
#	72476
#	128072
#	165628
#	177472
#	209561
#	229521
#	284366
#
# Disc length: 4237 seconds
#
# Revision: 0
# Processed by: cddbd v1.5.1PL0 Copyright (c) Steve Scherf et al.
# Submitted via: CDex 1.51
#
DISCID=90108b0a
DTITLE=Mike Longo - Explosion
DYEAR=1999
DGENRE=Jazz
TTITLE0=Eternal Triangle
TTITLE1=Blue Gil
TTITLE2=Along Came Betty
TTITLE3=Porgy and Bess Medley
TTITLE4=Frisco
TTITLE5=Dancing on the Moon
TTITLE6=A Night in Tunisia
TTITLE7=Younger than Springtime
TTITLE8=Kush
TTITLE9=It Don't Mean a Thing
EXTD=YEAR: 1999
EXTT0=
EXTT1=
EXTT2=
EXTT3=
EXTT4=
EXTT5=
EXTT6=
EXTT7=
EXTT8=
EXTT9=
PLAYORDER=
